<mxfile host="app.diagrams.net" modified="2024-03-23T11:25:42.559Z" agent="Mozilla/5.0 (X11; Linux x86_64) AppleWebKit/537.36 (KHTML, like Gecko) Chrome/120.0.0.0 Safari/537.36" etag="6QM6WeKiqDwegjjW0LT4" version="22.1.21" type="device">
  <diagram name="Page-1" id="w-lWyj8Ut34FLP-mD0ro">
    <mxGraphModel dx="2284" dy="759" grid="1" gridSize="10" guides="1" tooltips="1" connect="1" arrows="1" fold="1" page="1" pageScale="1" pageWidth="850" pageHeight="1100" math="0" shadow="0">
      <root>
        <mxCell id="0" />
        <mxCell id="1" parent="0" />
        <mxCell id="7ic5Q0N-fm72EmU3WI0P-2" value="" style="rounded=0;whiteSpace=wrap;html=1;fillColor=#bac8d3;strokeColor=#23445d;" vertex="1" parent="1">
          <mxGeometry x="-260" y="40" width="1520" height="530" as="geometry" />
        </mxCell>
        <mxCell id="7ic5Q0N-fm72EmU3WI0P-1" value="" style="rounded=1;whiteSpace=wrap;html=1;fillColor=#dae8fc;strokeColor=#6c8ebf;" vertex="1" parent="1">
          <mxGeometry x="-240" y="84" width="1200" height="470" as="geometry" />
        </mxCell>
        <mxCell id="7ic5Q0N-fm72EmU3WI0P-3" value="Architecture of Producer - Hexagonal" style="text;html=1;strokeColor=none;fillColor=none;align=center;verticalAlign=middle;whiteSpace=wrap;rounded=0;fontStyle=1;fontSize=14;" vertex="1" parent="1">
          <mxGeometry x="240" y="50" width="255" height="30" as="geometry" />
        </mxCell>
        <mxCell id="7ic5Q0N-fm72EmU3WI0P-5" value="" style="rounded=1;whiteSpace=wrap;html=1;fillColor=#f5f5f5;fontColor=#333333;strokeColor=#666666;" vertex="1" parent="1">
          <mxGeometry x="-220" y="120" width="230" height="140" as="geometry" />
        </mxCell>
        <mxCell id="7ic5Q0N-fm72EmU3WI0P-6" value="&lt;b&gt;HANDLER&lt;br&gt;(&lt;/b&gt;producthandler&lt;b style=&quot;background-color: initial;&quot;&gt;)&lt;/b&gt;" style="rounded=1;whiteSpace=wrap;html=1;" vertex="1" parent="1">
          <mxGeometry x="-190" y="150" width="160" height="80" as="geometry" />
        </mxCell>
        <mxCell id="7ic5Q0N-fm72EmU3WI0P-7" value="APPLICATION LAYER" style="text;html=1;strokeColor=none;fillColor=none;align=center;verticalAlign=middle;whiteSpace=wrap;rounded=0;fontStyle=1" vertex="1" parent="1">
          <mxGeometry x="-180" y="270" width="140" height="30" as="geometry" />
        </mxCell>
        <mxCell id="7ic5Q0N-fm72EmU3WI0P-9" value="" style="rounded=1;whiteSpace=wrap;html=1;fillColor=#f5f5f5;fontColor=#333333;strokeColor=#666666;" vertex="1" parent="1">
          <mxGeometry x="700" y="360" width="230" height="140" as="geometry" />
        </mxCell>
        <mxCell id="7ic5Q0N-fm72EmU3WI0P-10" value="INFRASTRUCTURE LAYER" style="text;html=1;strokeColor=none;fillColor=none;align=center;verticalAlign=middle;whiteSpace=wrap;rounded=0;fontStyle=1" vertex="1" parent="1">
          <mxGeometry x="730" y="510" width="180" height="30" as="geometry" />
        </mxCell>
        <mxCell id="7ic5Q0N-fm72EmU3WI0P-12" value="" style="rounded=1;whiteSpace=wrap;html=1;fillColor=#fff2cc;strokeColor=#d6b656;" vertex="1" parent="1">
          <mxGeometry x="970" y="84" width="270" height="470" as="geometry" />
        </mxCell>
        <mxCell id="7ic5Q0N-fm72EmU3WI0P-13" value="" style="rounded=1;whiteSpace=wrap;html=1;fillColor=#fff2cc;strokeColor=#d6b656;" vertex="1" parent="1">
          <mxGeometry x="20" y="120" width="670" height="390" as="geometry" />
        </mxCell>
        <mxCell id="7ic5Q0N-fm72EmU3WI0P-14" value="" style="ellipse;whiteSpace=wrap;html=1;aspect=fixed;" vertex="1" parent="1">
          <mxGeometry x="172" y="133" width="357" height="357" as="geometry" />
        </mxCell>
        <mxCell id="7ic5Q0N-fm72EmU3WI0P-31" value="" style="edgeStyle=orthogonalEdgeStyle;rounded=0;orthogonalLoop=1;jettySize=auto;html=1;" edge="1" parent="1" source="7ic5Q0N-fm72EmU3WI0P-16" target="7ic5Q0N-fm72EmU3WI0P-25">
          <mxGeometry relative="1" as="geometry" />
        </mxCell>
        <mxCell id="7ic5Q0N-fm72EmU3WI0P-16" value="&lt;b&gt;PORTS&lt;/b&gt;&lt;br&gt;&lt;b&gt;(&lt;/b&gt;usercasesport&lt;b&gt;)&lt;/b&gt;" style="rounded=1;whiteSpace=wrap;html=1;" vertex="1" parent="1">
          <mxGeometry x="30" y="150" width="160" height="80" as="geometry" />
        </mxCell>
        <mxCell id="7ic5Q0N-fm72EmU3WI0P-17" value="&lt;b&gt;PORTS&lt;/b&gt;&lt;br&gt;&lt;b&gt;(&lt;/b&gt;repositoryport&lt;b&gt;)&lt;/b&gt;" style="rounded=1;whiteSpace=wrap;html=1;" vertex="1" parent="1">
          <mxGeometry x="520" y="390" width="160" height="80" as="geometry" />
        </mxCell>
        <mxCell id="7ic5Q0N-fm72EmU3WI0P-18" value="&lt;b&gt;REPOSITORY&lt;/b&gt;&lt;br&gt;&lt;b&gt;(&lt;/b&gt;productrepository&lt;b style=&quot;background-color: initial;&quot;&gt;)&lt;/b&gt;" style="rounded=1;whiteSpace=wrap;html=1;" vertex="1" parent="1">
          <mxGeometry x="735" y="390" width="160" height="80" as="geometry" />
        </mxCell>
        <mxCell id="7ic5Q0N-fm72EmU3WI0P-19" value="" style="rounded=1;whiteSpace=wrap;html=1;" vertex="1" parent="1">
          <mxGeometry x="1030" y="150" width="160" height="360" as="geometry" />
        </mxCell>
        <mxCell id="7ic5Q0N-fm72EmU3WI0P-20" value="" style="html=1;verticalLabelPosition=bottom;align=center;labelBackgroundColor=#ffffff;verticalAlign=top;strokeWidth=2;strokeColor=#0080F0;shadow=0;dashed=0;shape=mxgraph.ios7.icons.mail;" vertex="1" parent="1">
          <mxGeometry x="1060" y="390" width="100" height="66.5" as="geometry" />
        </mxCell>
        <mxCell id="7ic5Q0N-fm72EmU3WI0P-21" value="KAFKA" style="text;html=1;strokeColor=none;fillColor=none;align=center;verticalAlign=middle;whiteSpace=wrap;rounded=0;fontStyle=1" vertex="1" parent="1">
          <mxGeometry x="1080" y="270" width="60" height="30" as="geometry" />
        </mxCell>
        <mxCell id="7ic5Q0N-fm72EmU3WI0P-22" value="" style="endArrow=classic;html=1;rounded=0;exitX=1;exitY=0.5;exitDx=0;exitDy=0;" edge="1" parent="1" source="7ic5Q0N-fm72EmU3WI0P-18">
          <mxGeometry width="50" height="50" relative="1" as="geometry">
            <mxPoint x="980" y="480" as="sourcePoint" />
            <mxPoint x="1030" y="430" as="targetPoint" />
          </mxGeometry>
        </mxCell>
        <mxCell id="7ic5Q0N-fm72EmU3WI0P-23" value="" style="endArrow=classic;html=1;rounded=0;entryX=0;entryY=0.5;entryDx=0;entryDy=0;exitX=1;exitY=0.5;exitDx=0;exitDy=0;" edge="1" parent="1" source="7ic5Q0N-fm72EmU3WI0P-17" target="7ic5Q0N-fm72EmU3WI0P-18">
          <mxGeometry width="50" height="50" relative="1" as="geometry">
            <mxPoint x="490" y="410" as="sourcePoint" />
            <mxPoint x="540" y="360" as="targetPoint" />
          </mxGeometry>
        </mxCell>
        <mxCell id="7ic5Q0N-fm72EmU3WI0P-24" value="DOMAIN LAYER" style="text;html=1;strokeColor=none;fillColor=none;align=center;verticalAlign=middle;whiteSpace=wrap;rounded=0;fontStyle=1" vertex="1" parent="1">
          <mxGeometry x="290" y="520" width="140" height="30" as="geometry" />
        </mxCell>
        <mxCell id="7ic5Q0N-fm72EmU3WI0P-25" value="&lt;b&gt;USER CASE&lt;br&gt;(&lt;/b&gt;productusercase&lt;b style=&quot;background-color: initial;&quot;&gt;)&lt;/b&gt;" style="rounded=1;whiteSpace=wrap;html=1;" vertex="1" parent="1">
          <mxGeometry x="265" y="200" width="160" height="80" as="geometry" />
        </mxCell>
        <mxCell id="7ic5Q0N-fm72EmU3WI0P-32" value="" style="edgeStyle=orthogonalEdgeStyle;rounded=0;orthogonalLoop=1;jettySize=auto;html=1;" edge="1" parent="1" source="7ic5Q0N-fm72EmU3WI0P-26" target="7ic5Q0N-fm72EmU3WI0P-25">
          <mxGeometry relative="1" as="geometry" />
        </mxCell>
        <mxCell id="7ic5Q0N-fm72EmU3WI0P-26" value="&lt;b&gt;DOMAIN&lt;br&gt;(&lt;/b&gt;productdomain&lt;b style=&quot;background-color: initial;&quot;&gt;)&lt;/b&gt;" style="rounded=1;whiteSpace=wrap;html=1;" vertex="1" parent="1">
          <mxGeometry x="265" y="330" width="160" height="80" as="geometry" />
        </mxCell>
        <mxCell id="7ic5Q0N-fm72EmU3WI0P-27" value="" style="endArrow=classic;html=1;rounded=0;entryX=0;entryY=0.5;entryDx=0;entryDy=0;exitX=1;exitY=0.5;exitDx=0;exitDy=0;" edge="1" parent="1" source="7ic5Q0N-fm72EmU3WI0P-25" target="7ic5Q0N-fm72EmU3WI0P-17">
          <mxGeometry width="50" height="50" relative="1" as="geometry">
            <mxPoint x="490" y="420" as="sourcePoint" />
            <mxPoint x="540" y="370" as="targetPoint" />
            <Array as="points">
              <mxPoint x="470" y="240" />
              <mxPoint x="470" y="430" />
            </Array>
          </mxGeometry>
        </mxCell>
        <mxCell id="7ic5Q0N-fm72EmU3WI0P-28" style="edgeStyle=orthogonalEdgeStyle;rounded=0;orthogonalLoop=1;jettySize=auto;html=1;exitX=1;exitY=0.5;exitDx=0;exitDy=0;" edge="1" parent="1" source="7ic5Q0N-fm72EmU3WI0P-6" target="7ic5Q0N-fm72EmU3WI0P-16">
          <mxGeometry relative="1" as="geometry" />
        </mxCell>
      </root>
    </mxGraphModel>
  </diagram>
</mxfile>
